<svg width="166" height="22" viewBox="0 0 166 22" fill="none" xmlns="http://www.w3.org/2000/svg">
<g id="element" clip-path="url(#clip0_5_107)">
<g id="Group">
<path id="Vector" d="M83.002 17.8174L76.9502 20.9433C76.3572 21.2507 75.6627 20.7557 75.7764 20.105L76.934 13.4818L72.0357 8.79084C71.5564 8.33173 71.8204 7.52928 72.4825 7.43347L79.2491 6.46734L82.275 0.438993C82.5715 -0.151865 83.4285 -0.151865 83.725 0.438993L86.7509 6.46734L93.5175 7.43347C94.1795 7.52928 94.4435 8.32774 93.9643 8.79084L89.066 13.4818L90.2235 20.105C90.3373 20.7557 89.6427 21.2507 89.0497 20.9433L82.9979 17.8134L83.002 17.8174Z" fill="#8f99bd"/>
<path id="Vector_2" d="M118.854 17.8176L112.802 20.9436C112.209 21.251 111.514 20.7559 111.628 20.1052L112.786 13.482L107.887 8.79109C107.408 8.33197 107.672 7.52953 108.334 7.43371L115.101 6.46758L118.127 0.439237C118.423 -0.151621 119.28 -0.151621 119.577 0.439237L122.603 6.46758L129.369 7.43371C130.031 7.52953 130.295 8.32798 129.816 8.79109L124.918 13.482L126.075 20.1052C126.189 20.7559 125.495 21.251 124.902 20.9436L118.85 17.8176H118.854Z" fill="#8f99bd"/>
</g>
<path id="Vector_3" d="M154.71 17.8174L148.658 20.9433C148.065 21.2507 147.37 20.7557 147.484 20.105L148.641 13.4818L143.743 8.79084C143.264 8.33173 143.528 7.52928 144.19 7.43347L150.957 6.46734L153.982 0.438993C154.279 -0.151865 155.136 -0.151865 155.432 0.438993L158.458 6.46734L165.225 7.43347C165.887 7.52928 166.151 8.32774 165.672 8.79084L160.773 13.4818L161.931 20.105C162.045 20.7557 161.35 21.2507 160.757 20.9433L154.705 17.8174H154.71Z" fill="#8f99bd"/>
<g id="Group_2">
<path id="Vector_4" d="M11.2902 17.8175L5.23845 20.9435C4.64545 21.2509 3.95092 20.7559 4.06465 20.1051L5.2222 13.4819L0.323909 8.791C-0.15536 8.33189 0.108644 7.52944 0.770685 7.43363L7.53732 6.46749L10.5673 0.443143C10.8638 -0.147714 11.7208 -0.147714 12.0173 0.443143L15.0432 6.47149L21.8098 7.43762C22.4718 7.53343 22.7358 8.33189 22.2566 8.79499L17.3583 13.4859L18.5158 20.1091C18.6296 20.7599 17.935 21.2549 17.342 20.9475L11.2902 17.8215V17.8175Z" fill="#8f99bd"/>
<path id="Vector_5" d="M47.1463 17.8175L41.0946 20.9435C40.5016 21.2509 39.807 20.7558 39.9208 20.1051L41.0783 13.4819L36.18 8.79097C35.7007 8.33185 35.9648 7.5294 36.6268 7.43359L43.3934 6.46746L46.4193 0.439115C46.7158 -0.151743 47.5728 -0.151743 47.8693 0.439115L50.8952 6.46746L57.6618 7.43359C58.3239 7.5294 58.5879 8.32786 58.1086 8.79097L53.2103 13.4819L54.3679 20.1051C54.4816 20.7558 53.7871 21.2509 53.1941 20.9435L47.1423 17.8175H47.1463Z" fill="#8f99bd"/>
</g>
</g>
<defs>
<clipPath id="clip0_5_107">
<rect width="165.839" height="21.0393" fill="white" transform="translate(0.0803375)"/>
</clipPath>
</defs>
</svg>
