<svg width="18" height="19" viewBox="0 0 18 19" fill="none" xmlns="http://www.w3.org/2000/svg">
<g id="icon">
<path id="Vector" d="M9 2C4.8645 2 1.5 5.3645 1.5 9.5C1.5 13.6355 4.8645 17 9 17C13.1355 17 16.5 13.6355 16.5 9.5C16.5 5.3645 13.1355 2 9 2ZM9 15.5C5.69175 15.5 3 12.8082 3 9.5C3 6.19175 5.69175 3.5 9 3.5C12.3082 3.5 15 6.19175 15 9.5C15 12.8082 12.3082 15.5 9 15.5Z" fill="#B4B9C9"/>
<path id="Vector_2" d="M6.375 9.5C6.99632 9.5 7.5 8.99632 7.5 8.375C7.5 7.75368 6.99632 7.25 6.375 7.25C5.75368 7.25 5.25 7.75368 5.25 8.375C5.25 8.99632 5.75368 9.5 6.375 9.5Z" fill="#B4B9C9"/>
<path id="Vector_3" d="M11.6198 9.4895C12.2382 9.4895 12.7395 8.98817 12.7395 8.36975C12.7395 7.75133 12.2382 7.25 11.6198 7.25C11.0013 7.25 10.5 7.75133 10.5 8.36975C10.5 8.98817 11.0013 9.4895 11.6198 9.4895Z" fill="#B4B9C9"/>
<path id="Vector_4" d="M9 14C12 14 12.75 11 12.75 11H5.25C5.25 11 6 14 9 14Z" fill="#B4B9C9"/>
</g>
</svg>
