<svg width="40" height="40" viewBox="0 0 40 40" fill="none" xmlns="http://www.w3.org/2000/svg">
<g id="Social Media Icon Square/Instagram">
<rect id="Social Media Icon" width="40" height="40" rx="8" fill="white"/>
<path id="Instagram" fill-rule="evenodd" clip-rule="evenodd" d="M11 20.0986C11 16.5035 11 14.7059 11.8567 13.4112C12.2392 12.833 12.7344 12.3379 13.3126 11.9553C14.6073 11.0986 16.4049 11.0986 20 11.0986C23.5951 11.0986 25.3927 11.0986 26.6874 11.9553C27.2656 12.3379 27.7608 12.833 28.1433 13.4112C29 14.7059 29 16.5035 29 20.0986C29 23.6938 29 25.4913 28.1433 26.7861C27.7608 27.3642 27.2656 27.8594 26.6874 28.2419C25.3927 29.0986 23.5951 29.0986 20 29.0986C16.4049 29.0986 14.6073 29.0986 13.3126 28.2419C12.7344 27.8594 12.2392 27.3642 11.8567 26.7861C11 25.4913 11 23.6938 11 20.0986ZM24.6592 20.0988C24.6592 22.6721 22.5732 24.7582 19.9998 24.7582C17.4265 24.7582 15.3404 22.6721 15.3404 20.0988C15.3404 17.5254 17.4265 15.4394 19.9998 15.4394C22.5732 15.4394 24.6592 17.5254 24.6592 20.0988ZM19.9998 23.1818C21.7025 23.1818 23.0828 21.8015 23.0828 20.0988C23.0828 18.3961 21.7025 17.0158 19.9998 17.0158C18.2971 17.0158 16.9168 18.3961 16.9168 20.0988C16.9168 21.8015 18.2971 23.1818 19.9998 23.1818ZM24.8433 16.3001C25.4479 16.3001 25.9381 15.8099 25.9381 15.2053C25.9381 14.6006 25.4479 14.1104 24.8433 14.1104C24.2386 14.1104 23.7485 14.6006 23.7485 15.2053C23.7485 15.8099 24.2386 16.3001 24.8433 16.3001Z" fill="#212B38"/>
</g>
</svg>
