<svg width="40" height="40" viewBox="0 0 40 40" fill="none" xmlns="http://www.w3.org/2000/svg">
<g id="Social Media Icon Square/LinkedIn">
<g id="Group 73">
<rect id="Social Media Icon" width="40" height="40" rx="8" fill="white"/>
<path id="LinkedIn" d="M11 13.1895C11 12.5835 11.2027 12.0835 11.6081 11.6895C12.0135 11.2956 12.5405 11.0986 13.1892 11.0986C13.8263 11.0986 14.3417 11.2926 14.7355 11.6805C15.1409 12.0805 15.3436 12.6017 15.3436 13.2441C15.3436 13.8259 15.1467 14.3107 14.7529 14.6986C14.3475 15.0986 13.8147 15.2986 13.1544 15.2986H13.1371C12.5 15.2986 11.9846 15.0986 11.5907 14.6986C11.1969 14.2986 11 13.7956 11 13.1895ZM11.2259 29.0986V16.9532H15.083V29.0986H11.2259ZM17.2201 29.0986H21.0772V22.3168C21.0772 21.8926 21.1236 21.5653 21.2162 21.335C21.3784 20.9229 21.6245 20.5744 21.9546 20.2895C22.2847 20.0047 22.6988 19.8623 23.1969 19.8623C24.4942 19.8623 25.1429 20.7774 25.1429 22.6077V29.0986H29V22.135C29 20.3411 28.5946 18.9805 27.7838 18.0532C26.973 17.1259 25.9015 16.6623 24.5695 16.6623C23.0753 16.6623 21.9112 17.335 21.0772 18.6805V18.7168H21.0598L21.0772 18.6805V16.9532H17.2201C17.2432 17.3411 17.2548 18.5471 17.2548 20.5714C17.2548 22.5956 17.2432 25.438 17.2201 29.0986Z" fill="#212B38"/>
</g>
</g>
</svg>
