<svg width="37" height="38" viewBox="0 0 37 38" fill="none" xmlns="http://www.w3.org/2000/svg">
<g id="Tech">
<path id="Ret&#195;&#162;ngulo 591" d="M31.5966 0.5H5.2661C2.35771 0.5 0 2.85771 0 5.7661V32.0966C0 35.005 2.35771 37.3627 5.2661 37.3627H31.5966C34.505 37.3627 36.8627 35.005 36.8627 32.0966V5.7661C36.8627 2.85771 34.505 0.5 31.5966 0.5Z" fill="url(#paint0_linear_3_32)"/>
<g id="Grupo 713">
<path id="Caminho 2147" d="M6 18.7208C6.03585 18.7683 6.08225 18.821 6.13708 18.763C7.34129 17.4934 8.54408 16.2242 9.74548 14.9553C9.84249 14.8499 9.93106 14.7444 10.0323 14.6453C10.1419 14.5065 10.2794 14.3922 10.4358 14.3098C10.5923 14.2274 10.7644 14.1787 10.9408 14.1669C11.1173 14.1551 11.2942 14.1804 11.4603 14.2412C11.6264 14.3019 11.7779 14.3969 11.905 14.5198C12.0432 14.6453 12.1539 14.7981 12.2302 14.9684C12.3065 15.1388 12.3468 15.3231 12.3485 15.5097C12.3502 15.6964 12.3132 15.8814 12.24 16.0531C12.1668 16.2248 12.0588 16.3795 11.923 16.5075C11.1279 17.3605 10.3254 18.2073 9.49768 19.0256C9.21719 19.3018 9.26464 19.4357 9.51455 19.6867C10.3381 20.5113 11.1374 21.3612 11.9398 22.209C12.0713 22.3337 12.1758 22.484 12.2468 22.6506C12.3179 22.8173 12.3539 22.9968 12.3529 23.1779C12.3518 23.3591 12.3135 23.5381 12.2405 23.7039C12.1674 23.8697 12.0612 24.0188 11.9282 24.1418C11.8101 24.2747 11.6637 24.3795 11.4998 24.4483C11.3358 24.5172 11.1586 24.5485 10.981 24.5399C10.8034 24.5313 10.6299 24.4831 10.4734 24.3987C10.3169 24.3143 10.1813 24.1959 10.0766 24.0522C8.74162 22.6877 7.37081 21.3528 6.13814 19.8944C6.08647 19.8343 6.03269 19.886 6 19.9335V18.7208Z" fill="white"/>
<path id="Caminho 2148" d="M30.4678 19.9298C30.1219 19.836 30.1514 20.1956 30.0196 20.3326C28.7848 21.5737 27.5806 22.8444 26.3532 24.0918C26.246 24.2272 26.1104 24.3373 25.9559 24.4145C25.8014 24.4916 25.6319 24.5339 25.4593 24.5383C25.2867 24.5427 25.1153 24.5092 24.957 24.4401C24.7988 24.3709 24.6577 24.2679 24.5437 24.1382C24.4136 24.0192 24.3087 23.8753 24.2352 23.715C24.1618 23.5547 24.1213 23.3813 24.1162 23.205C24.111 23.0288 24.1414 22.8533 24.2054 22.689C24.2695 22.5247 24.3659 22.3749 24.4889 22.2486C25.2998 21.3818 26.1191 20.5214 26.9585 19.681C27.2115 19.4279 27.2516 19.295 26.9722 19.0198C26.156 18.2163 25.3757 17.3759 24.5849 16.5471C24.3872 16.3738 24.2443 16.1467 24.1733 15.8936C24.1024 15.6405 24.1065 15.3722 24.1852 15.1214C24.2489 14.8866 24.3773 14.6743 24.5557 14.5087C24.7341 14.3432 24.9554 14.2311 25.1944 14.1851C25.4438 14.1455 25.6994 14.1749 25.9334 14.27C26.1674 14.3652 26.3709 14.5225 26.5219 14.725C27.7796 16.055 29.0344 17.3875 30.2864 18.7225C30.3486 18.7889 30.4108 18.8131 30.4699 18.7225L30.4678 19.9298Z" fill="white"/>
<path id="Caminho 2149" d="M14.7004 26.7863C14.462 26.7936 14.2261 26.7355 14.0183 26.6184C13.8105 26.5013 13.6388 26.3295 13.5216 26.1217C13.4044 25.914 13.3463 25.6781 13.3535 25.4397C13.3607 25.2013 13.4331 24.9694 13.5626 24.7691C14.5981 22.9354 15.6526 21.1112 16.6913 19.2795C17.9194 17.1137 19.1436 14.9478 20.364 12.7819C20.4916 12.5552 20.6139 12.3243 20.7605 12.1102C20.8406 11.9699 20.9479 11.8471 21.0762 11.749C21.2045 11.6509 21.3511 11.5794 21.5075 11.5388C21.6638 11.4982 21.8267 11.4894 21.9865 11.5127C22.1464 11.536 22.2999 11.5911 22.4381 11.6747C22.5883 11.7478 22.7216 11.8512 22.8296 11.9786C22.9376 12.1059 23.018 12.2543 23.0656 12.4143C23.1132 12.5744 23.127 12.7426 23.1061 12.9082C23.0852 13.0739 23.0301 13.2334 22.9443 13.3766C22.2061 14.7327 21.4416 16.0708 20.6803 17.4131C19.0564 20.275 17.423 23.1305 15.8055 25.9965C15.7031 26.2111 15.5481 26.3962 15.3549 26.5347C15.1616 26.6732 14.9365 26.7605 14.7004 26.7884" fill="white"/>
</g>
</g>
<defs>
<linearGradient id="paint0_linear_3_32" x1="82" y1="20" x2="-2.77813" y2="17.0826" gradientUnits="userSpaceOnUse">
<stop offset="0.191743" stop-color="#4AA6F7"/>
<stop offset="0.271902" stop-color="#4AA6F7"/>
<stop offset="1" stop-color="#1141BD"/>
</linearGradient>
</defs>
</svg>
