<svg width="131" height="20" viewBox="0 0 131 20" fill="none" xmlns="http://www.w3.org/2000/svg">
<g id="text">
<g id="TurboTech">
<path id="Vector" d="M121.189 11.0657V19.5793H119.029V0.709473H121.189V7.63822H121.372C121.702 6.90726 122.196 6.32679 122.855 5.89682C123.52 5.4607 124.405 5.24264 125.509 5.24264C126.467 5.24264 127.306 5.43613 128.026 5.82311C128.746 6.20394 129.304 6.79055 129.701 7.58294C130.104 8.36918 130.305 9.37041 130.305 10.5866V19.5793H128.145V10.734C128.145 9.60996 127.855 8.7408 127.276 8.12655C126.702 7.50616 125.906 7.19596 124.887 7.19596C124.179 7.19596 123.544 7.34645 122.983 7.64743C122.428 7.94842 121.989 8.38761 121.665 8.965C121.348 9.5424 121.189 10.2426 121.189 11.0657Z" fill="url(#paint0_linear_7_363)"/>
<path id="Vector_2" d="M110.344 19.8741C109.026 19.8741 107.891 19.5609 106.939 18.9343C105.987 18.3078 105.255 17.4448 104.743 16.3453C104.23 15.2457 103.974 13.9896 103.974 12.5768C103.974 11.1395 104.236 9.87105 104.761 8.77154C105.292 7.66589 106.03 6.80287 106.976 6.18248C107.928 5.55594 109.038 5.24268 110.307 5.24268C111.296 5.24268 112.186 5.42695 112.98 5.7955C113.773 6.16405 114.423 6.68002 114.929 7.34341C115.436 8.0068 115.75 8.78076 115.872 9.66528H113.712C113.547 9.02032 113.181 8.44906 112.614 7.95152C112.052 7.44784 111.296 7.19599 110.344 7.19599C109.502 7.19599 108.764 7.41712 108.129 7.85938C107.501 8.2955 107.009 8.91282 106.655 9.71135C106.308 10.5037 106.134 11.4343 106.134 12.5031C106.134 13.5965 106.305 14.5486 106.646 15.3594C106.994 16.1702 107.482 16.7998 108.111 17.2482C108.745 17.6966 109.49 17.9208 110.344 17.9208C110.905 17.9208 111.415 17.8225 111.872 17.626C112.33 17.4294 112.717 17.1469 113.035 16.7783C113.352 16.4098 113.578 15.9675 113.712 15.4515H115.872C115.75 16.2869 115.448 17.0394 114.966 17.7089C114.49 18.3723 113.858 18.9005 113.071 19.2937C112.29 19.6806 111.381 19.8741 110.344 19.8741Z" fill="url(#paint1_linear_7_363)"/>
<path id="Vector_3" d="M95.5264 19.8741C94.1719 19.8741 93.0034 19.5731 92.0211 18.9712C91.0448 18.3631 90.2913 17.5154 89.7605 16.4282C89.2358 15.3348 88.9734 14.0633 88.9734 12.6137C88.9734 11.1641 89.2358 9.88641 89.7605 8.78076C90.2913 7.66897 91.0296 6.80287 91.9753 6.18248C92.9272 5.55594 94.0376 5.24268 95.3067 5.24268C96.0389 5.24268 96.762 5.36553 97.4758 5.61123C98.1897 5.85693 98.8395 6.25619 99.4253 6.80902C100.011 7.3557 100.478 8.08051 100.826 8.98346C101.173 9.88641 101.347 10.9982 101.347 12.3188V13.2402H90.511V11.3606H99.1507C99.1507 10.5621 98.9921 9.84956 98.6748 9.22302C98.3636 8.59648 97.9182 8.10201 97.3385 7.7396C96.765 7.3772 96.0877 7.19599 95.3067 7.19599C94.4464 7.19599 93.7021 7.41098 93.0736 7.84096C92.4512 8.26479 91.9723 8.81761 91.6367 9.49943C91.3011 10.1813 91.1333 10.9122 91.1333 11.6923V12.9454C91.1333 14.0142 91.3164 14.9202 91.6825 15.6634C92.0546 16.4005 92.5702 16.9626 93.2292 17.3496C93.8881 17.7304 94.6539 17.9208 95.5264 17.9208C96.0938 17.9208 96.6064 17.841 97.064 17.6813C97.5277 17.5154 97.9273 17.2697 98.2629 16.9441C98.5985 16.6125 98.8578 16.2009 99.0409 15.7095L101.128 16.2992C100.908 17.0117 100.539 17.6383 100.02 18.1788C99.5015 18.7132 98.8609 19.1309 98.0982 19.4319C97.3355 19.7267 96.4782 19.8741 95.5264 19.8741Z" fill="url(#paint2_linear_7_363)"/>
<path id="Vector_4" d="M74.403 2.7365V0.709473H88.4608V2.7365H82.5668V19.5793H80.297V2.7365H74.403Z" fill="url(#paint3_linear_7_363)"/>
<path id="Vector_5" d="M65.2599 19.8557C63.8382 19.8557 62.6088 19.5516 61.5715 18.9435C60.5403 18.3293 59.7441 17.4755 59.1828 16.3821C58.6214 15.2826 58.3408 14.008 58.3408 12.5584C58.3408 11.0965 58.6214 9.81884 59.1828 8.72548C59.7441 7.62597 60.5403 6.77216 61.5715 6.16405C62.6088 5.5498 63.8382 5.24268 65.2599 5.24268C66.6815 5.24268 67.9079 5.5498 68.9391 6.16405C69.9763 6.77216 70.7756 7.62597 71.3369 8.72548C71.8983 9.81884 72.179 11.0965 72.179 12.5584C72.179 14.008 71.8983 15.2826 71.3369 16.3821C70.7756 17.4755 69.9763 18.3293 68.9391 18.9435C67.9079 19.5516 66.6815 19.8557 65.2599 19.8557ZM65.2782 16.8152C65.9249 16.8152 66.4649 16.6309 66.8981 16.2623C67.3313 15.8876 67.6577 15.3778 67.8774 14.7328C68.1032 14.0879 68.216 13.3539 68.216 12.5308C68.216 11.7077 68.1032 10.9736 67.8774 10.3287C67.6577 9.68371 67.3313 9.17388 66.8981 8.79919C66.4649 8.42449 65.9249 8.23715 65.2782 8.23715C64.6253 8.23715 64.0762 8.42449 63.6308 8.79919C63.1914 9.17388 62.8589 9.68371 62.6332 10.3287C62.4135 10.9736 62.3037 11.7077 62.3037 12.5308C62.3037 13.3539 62.4135 14.0879 62.6332 14.7328C62.8589 15.3778 63.1914 15.8876 63.6308 16.2623C64.0762 16.6309 64.6253 16.8152 65.2782 16.8152Z" fill="white"/>
<path id="Vector_6" d="M42.5966 19.5793V0.709473H46.4955V7.80407H46.6145C46.7853 7.42323 47.0324 7.03625 47.3558 6.64313C47.6853 6.24387 48.1124 5.91218 48.6371 5.64805C49.1679 5.37778 49.8269 5.24264 50.614 5.24264C51.639 5.24264 52.5848 5.51291 53.4512 6.05345C54.3176 6.58785 55.0101 7.39559 55.5287 8.47667C56.0474 9.55161 56.3067 10.8999 56.3067 12.5215C56.3067 14.1001 56.0535 15.4331 55.5471 16.5203C55.0467 17.6014 54.3634 18.4214 53.4969 18.9804C52.6366 19.5332 51.6726 19.8096 50.6048 19.8096C49.8482 19.8096 49.2045 19.6837 48.6737 19.4318C48.149 19.18 47.7188 18.8636 47.3832 18.4828C47.0477 18.0958 46.7914 17.7058 46.6145 17.3127H46.4406V19.5793H42.5966ZM46.4131 12.5031C46.4131 13.3446 46.529 14.0786 46.7609 14.7052C46.9927 15.3317 47.3283 15.82 47.7676 16.1702C48.2069 16.5141 48.7408 16.6861 49.3693 16.6861C50.0038 16.6861 50.5408 16.5111 50.9801 16.1609C51.4194 15.8047 51.7519 15.3133 51.9777 14.6867C52.2095 14.0541 52.3255 13.3262 52.3255 12.5031C52.3255 11.6861 52.2126 10.9675 51.9868 10.3471C51.7611 9.72667 51.4285 9.24141 50.9892 8.89129C50.5499 8.54117 50.0099 8.36611 49.3693 8.36611C48.7347 8.36611 48.1978 8.53502 47.7585 8.87286C47.3253 9.2107 46.9927 9.68982 46.7609 10.3102C46.529 10.9306 46.4131 11.6616 46.4131 12.5031Z" fill="white"/>
<path id="Vector_7" d="M31.9777 19.5792V5.42682H35.7576V7.89611H35.904C36.1603 7.01773 36.5905 6.35434 37.1945 5.90594C37.7986 5.45139 38.4941 5.22412 39.2812 5.22412C39.4765 5.22412 39.687 5.23641 39.9127 5.26098C40.1385 5.28555 40.3368 5.31933 40.5076 5.36233V8.84513C40.3246 8.78985 40.0714 8.74071 39.748 8.69771C39.4246 8.65471 39.1287 8.63321 38.8602 8.63321C38.2867 8.63321 37.7741 8.75913 37.3226 9.01098C36.8772 9.25668 36.5233 9.60066 36.261 10.0429C36.0047 10.4852 35.8766 10.995 35.8766 11.5724V19.5792H31.9777Z" fill="white"/>
<path id="Vector_8" d="M24.9603 13.5535V5.427H28.8591V19.5793H25.1159V17.0087H24.9694C24.6521 17.8379 24.1244 18.5044 23.3861 19.0081C22.6539 19.5118 21.76 19.7636 20.7045 19.7636C19.7648 19.7636 18.9381 19.5486 18.2242 19.1186C17.5103 18.6887 16.9521 18.0775 16.5494 17.2851C16.1528 16.4927 15.9514 15.5437 15.9453 14.4381V5.427H19.8442V13.7378C19.8503 14.5732 20.073 15.2335 20.5123 15.7188C20.9516 16.204 21.5404 16.4467 22.2787 16.4467C22.7485 16.4467 23.1878 16.3392 23.5966 16.1242C24.0054 15.903 24.3349 15.5775 24.585 15.1475C24.8413 14.7175 24.9664 14.1862 24.9603 13.5535Z" fill="white"/>
<path id="Vector_9" d="M0.0020752 3.99879V0.709473H15.3962V3.99879H9.6577V19.5793H5.74053V3.99879H0.0020752Z" fill="white"/>
</g>
</g>
<defs>
<linearGradient id="paint0_linear_7_363" x1="133.398" y1="16.143" x2="84.2737" y2="32.2926" gradientUnits="userSpaceOnUse">
<stop stop-color="#4AA6F7"/>
<stop offset="0.496072" stop-color="#4AA6F7"/>
<stop offset="1" stop-color="#1141BD"/>
</linearGradient>
<linearGradient id="paint1_linear_7_363" x1="133.398" y1="16.143" x2="84.2737" y2="32.2926" gradientUnits="userSpaceOnUse">
<stop stop-color="#4AA6F7"/>
<stop offset="0.496072" stop-color="#4AA6F7"/>
<stop offset="1" stop-color="#1141BD"/>
</linearGradient>
<linearGradient id="paint2_linear_7_363" x1="133.398" y1="16.143" x2="84.2737" y2="32.2926" gradientUnits="userSpaceOnUse">
<stop stop-color="#4AA6F7"/>
<stop offset="0.496072" stop-color="#4AA6F7"/>
<stop offset="1" stop-color="#1141BD"/>
</linearGradient>
<linearGradient id="paint3_linear_7_363" x1="133.398" y1="16.143" x2="84.2737" y2="32.2926" gradientUnits="userSpaceOnUse">
<stop stop-color="#4AA6F7"/>
<stop offset="0.496072" stop-color="#4AA6F7"/>
<stop offset="1" stop-color="#1141BD"/>
</linearGradient>
</defs>
</svg>
