<svg width="40" height="40" viewBox="0 0 40 40" fill="none" xmlns="http://www.w3.org/2000/svg">
<g id="Social Media Icon Square/Twitter">
<rect id="Social Media Icon" width="40" height="40" rx="8" fill="white"/>
<path id="Twitter" d="M23.3634 11.1026V11.0986H24.3011L24.6438 11.1745C24.8722 11.2238 25.0796 11.2884 25.266 11.3683C25.4523 11.4482 25.6327 11.5415 25.807 11.648C25.9813 11.7546 26.1394 11.8631 26.2813 11.9737C26.422 12.0829 26.5482 12.1988 26.66 12.3213C26.7706 12.4451 26.9432 12.4771 27.1776 12.4172C27.4121 12.3572 27.6645 12.274 27.935 12.1674C28.2056 12.0609 28.4731 11.941 28.7376 11.8078C29.0021 11.6747 29.1632 11.5901 29.2209 11.5541C29.2774 11.5168 29.3075 11.4969 29.3111 11.4942L29.3147 11.4882L29.3327 11.4782L29.3507 11.4682L29.3688 11.4582L29.3868 11.4482L29.3904 11.4423L29.3958 11.4383L29.4012 11.4343L29.4048 11.4283L29.4229 11.4223L29.4409 11.4183L29.4373 11.4482L29.4319 11.4782L29.4229 11.5082L29.4139 11.5381L29.4048 11.5581L29.3958 11.5781L29.3868 11.6081C29.3808 11.628 29.3748 11.6547 29.3688 11.688C29.3628 11.7213 29.3056 11.8545 29.1974 12.0875C29.0892 12.3206 28.954 12.557 28.7917 12.7967C28.6294 13.0365 28.4839 13.2176 28.3553 13.3401C28.2254 13.464 28.1394 13.5506 28.0974 13.5999C28.0553 13.6505 28.0042 13.6971 27.9441 13.7397L27.8539 13.8056L27.8359 13.8156L27.8178 13.8256L27.8142 13.8316L27.8088 13.8356L27.8034 13.8396L27.7998 13.8456L27.7818 13.8556L27.7637 13.8656L27.7601 13.8716L27.7547 13.8755L27.7493 13.8795L27.7457 13.8855L27.7421 13.8915L27.7367 13.8955L27.7313 13.8995L27.7277 13.9055H27.8178L28.3228 13.7856C28.6594 13.7057 28.981 13.6092 29.2876 13.496L29.7745 13.3162L29.8286 13.2962L29.8557 13.2862L29.8737 13.2762L29.8918 13.2662L29.9098 13.2562L29.9278 13.2462L29.9639 13.2403L30 13.2363V13.2762L29.991 13.2802L29.9819 13.2862L29.9783 13.2922L29.9729 13.2962L29.9675 13.3002L29.9639 13.3062L29.9603 13.3122L29.9549 13.3162L29.9495 13.3202L29.9459 13.3262L29.9423 13.3322L29.9368 13.3361L29.9278 13.3561L29.9188 13.3761L29.9134 13.3801C29.911 13.3841 29.8347 13.4973 29.6844 13.7197C29.5341 13.9435 29.4529 14.0567 29.4409 14.0593C29.4289 14.0633 29.4121 14.0833 29.3904 14.1193C29.37 14.1566 29.2425 14.3051 29.0081 14.5648C28.7736 14.8245 28.544 15.0556 28.3192 15.258C28.0932 15.4618 27.9789 15.7122 27.9765 16.0092C27.9729 16.3048 27.9591 16.6392 27.935 17.0121C27.911 17.385 27.8659 17.7879 27.7998 18.2207C27.7337 18.6536 27.6315 19.143 27.4932 19.6891C27.355 20.2351 27.1866 20.7679 26.9882 21.2873C26.7899 21.8067 26.5825 22.2729 26.3661 22.6858C26.1497 23.0986 25.9513 23.4483 25.7709 23.7346C25.5906 24.0209 25.4073 24.2906 25.2209 24.5437C25.0345 24.7968 24.7989 25.0818 24.514 25.3987C24.2278 25.7144 24.0715 25.8875 24.0451 25.9182C24.0174 25.9475 23.8996 26.0567 23.6916 26.2458C23.4848 26.4363 23.2624 26.6267 23.0243 26.8172C22.7875 27.0063 22.5699 27.1641 22.3715 27.2906C22.1731 27.4172 21.9339 27.5617 21.6537 27.7242C21.3748 27.888 21.073 28.0398 20.7484 28.1797C20.4238 28.3195 20.0811 28.4494 19.7204 28.5692C19.3598 28.6891 19.0111 28.7823 18.6745 28.8489C18.3378 28.9155 17.9561 28.9721 17.5293 29.0187L16.8891 29.0886V29.0986H15.7168V29.0886L15.5635 29.0787C15.4614 29.072 15.3772 29.0653 15.3111 29.0587C15.2449 29.052 14.9955 29.0154 14.5626 28.9488C14.1298 28.8822 13.7902 28.8156 13.5437 28.749C13.2972 28.6824 12.9305 28.5559 12.4436 28.3694C11.9567 28.183 11.5401 27.9945 11.1938 27.8041C10.8488 27.6149 10.6324 27.4951 10.5446 27.4445C10.458 27.3952 10.3607 27.3339 10.2524 27.2607L10.0901 27.1508L10.0866 27.1448L10.0811 27.1408L10.0757 27.1368L10.0721 27.1308L10.0541 27.1208L10.036 27.1108L10.0324 27.1048L10.027 27.1009L10.0216 27.0969L10.018 27.0909L10.0144 27.0849L10.009 27.0809H9.99997V27.0409L10.018 27.0449L10.036 27.0509L10.1172 27.0609C10.1713 27.0675 10.3186 27.0775 10.559 27.0909C10.7995 27.1042 11.055 27.1042 11.3255 27.0909C11.596 27.0775 11.8725 27.0476 12.1551 27.001C12.4376 26.9544 12.7712 26.8744 13.156 26.7612C13.5407 26.648 13.8942 26.5135 14.2164 26.3577C14.5374 26.2005 14.7658 26.0833 14.9017 26.0061C15.0363 25.9302 15.2419 25.789 15.5185 25.5825L15.9332 25.2729L15.9368 25.2669L15.9423 25.2629L15.9477 25.2589L15.9513 25.2529L15.9549 25.2469L15.9603 25.2429L15.9657 25.2389L15.9693 25.2329L15.9873 25.2269L16.0054 25.2229L16.009 25.203L16.0144 25.183L16.0198 25.179L16.0234 25.173L15.8791 25.163C15.783 25.1564 15.6898 25.1497 15.5996 25.143C15.5094 25.1364 15.3682 25.1064 15.1758 25.0531C14.9834 24.9998 14.7761 24.9199 14.5536 24.8134C14.3312 24.7069 14.1148 24.5803 13.9044 24.4338C13.694 24.2873 13.5419 24.1654 13.4481 24.0682C13.3556 23.9723 13.2353 23.8365 13.0874 23.6607C12.9408 23.4836 12.8133 23.3017 12.7051 23.1153C12.5969 22.9288 12.4935 22.7137 12.3949 22.47L12.2452 22.1064L12.2362 22.0764L12.2272 22.0465L12.2218 22.0265L12.2182 22.0065L12.2452 22.0105L12.2723 22.0165L12.4707 22.0465C12.6029 22.0664 12.8103 22.0731 13.0928 22.0664C13.3754 22.0598 13.5708 22.0465 13.679 22.0265C13.7872 22.0065 13.8533 21.9932 13.8773 21.9865L13.9134 21.9765L13.9585 21.9666L14.0036 21.9566L14.0072 21.9506L14.0126 21.9466L14.018 21.9426L14.0216 21.9366L13.9855 21.9266L13.9495 21.9166L13.9134 21.9066L13.8773 21.8966L13.8413 21.8866C13.8172 21.88 13.7752 21.8667 13.715 21.8467C13.6549 21.8267 13.4926 21.7535 13.2281 21.6269C12.9636 21.5004 12.7532 21.3772 12.5969 21.2573C12.4402 21.1371 12.2908 21.0057 12.1497 20.8638C12.009 20.7199 11.8545 20.5348 11.6862 20.3084C11.5179 20.082 11.3676 19.8189 11.2353 19.5193C11.1031 19.2196 11.0039 18.9333 10.9378 18.6602C10.8719 18.3888 10.8284 18.1113 10.8079 17.8312L10.7754 17.4116L10.7935 17.4156L10.8115 17.4216L10.8295 17.4316L10.8476 17.4416L10.8656 17.4516L10.8836 17.4616L11.1632 17.6014C11.3495 17.6946 11.581 17.7746 11.8575 17.8411C12.134 17.9077 12.2993 17.9444 12.3534 17.951L12.4346 17.961H12.5969L12.5933 17.955L12.5879 17.951L12.5825 17.947L12.5789 17.941L12.5753 17.935L12.5699 17.931L12.5644 17.927L12.5608 17.9211L12.5428 17.9111L12.5248 17.9011L12.5212 17.8951L12.5157 17.8911L12.5103 17.8871L12.5067 17.8811L12.4887 17.8711L12.4707 17.8611L12.4671 17.8551C12.4635 17.8524 12.4118 17.8098 12.312 17.7273C12.2134 17.6434 12.11 17.5348 12.0018 17.4016C11.8936 17.2684 11.7854 17.1286 11.6772 16.9821C11.5688 16.8353 11.4722 16.6782 11.3886 16.5126C11.3045 16.3461 11.2155 16.1344 11.1217 15.8773C11.0291 15.6216 10.9588 15.3639 10.9107 15.1042C10.8626 14.8445 10.8356 14.5881 10.8295 14.335C10.8235 14.082 10.8295 13.8656 10.8476 13.6858C10.8656 13.506 10.9017 13.3028 10.9558 13.0764C11.0099 12.85 11.088 12.6103 11.1902 12.3572L11.3435 11.9777L11.3525 11.9477L11.3616 11.9177L11.367 11.9137L11.3706 11.9077L11.3742 11.9017L11.3796 11.8977L11.385 11.9017L11.3886 11.9077L11.3922 11.9137L11.3976 11.9177L11.4031 11.9217L11.4066 11.9277L11.4102 11.9337L11.4157 11.9377L11.4247 11.9577L11.4337 11.9777L11.4391 11.9817L11.4427 11.9876L11.6862 12.2873C11.8485 12.4871 12.0409 12.7102 12.2633 12.9566C12.4857 13.203 12.6089 13.3308 12.633 13.3401C12.657 13.3508 12.6871 13.3814 12.7231 13.432C12.7592 13.4813 12.8794 13.5992 13.0838 13.7856C13.2882 13.9721 13.5557 14.1885 13.8864 14.4349C14.217 14.6813 14.5837 14.9244 14.9864 15.1641C15.3892 15.4038 15.822 15.6203 16.2849 15.8134C16.7478 16.0065 17.0724 16.133 17.2588 16.193C17.4451 16.2529 17.7637 16.3295 18.2146 16.4227C18.6654 16.516 19.0051 16.5759 19.2335 16.6025C19.462 16.6291 19.6183 16.6445 19.7024 16.6485L19.8286 16.6525L19.8251 16.6225L19.8196 16.5925L19.7836 16.3428C19.7595 16.1763 19.7475 15.9432 19.7475 15.6436C19.7475 15.3439 19.7685 15.0676 19.8106 14.8145C19.8527 14.5614 19.9158 14.3051 20 14.0454C20.0841 13.7856 20.1665 13.5772 20.247 13.4201C20.3288 13.2642 20.4358 13.0864 20.568 12.8866C20.7003 12.6869 20.8716 12.4804 21.082 12.2673C21.2924 12.0542 21.5329 11.8644 21.8034 11.698C22.0739 11.5315 22.3234 11.405 22.5518 11.3184C22.7803 11.2318 22.9726 11.1752 23.1289 11.1486C23.2852 11.1219 23.3634 11.1066 23.3634 11.1026Z" fill="#212B38"/>
</g>
</svg>
